<mxfile host="app.diagrams.net" agent="Mozilla/5.0 (Windows NT 10.0; Win64; x64) AppleWebKit/537.36 (KHTML, like Gecko) Chrome/134.0.0.0 Safari/537.36" version="26.1.2">
  <diagram id="R2lEEEUBdFMjLlhIrx00" name="Page-1">
    <mxGraphModel dx="2284" dy="1838" grid="1" gridSize="10" guides="1" tooltips="1" connect="1" arrows="1" fold="1" page="1" pageScale="1" pageWidth="850" pageHeight="1100" math="0" shadow="0" extFonts="Permanent Marker^https://fonts.googleapis.com/css?family=Permanent+Marker">
      <root>
        <mxCell id="0" />
        <mxCell id="1" parent="0" />
        <mxCell id="e6L7W6aGP-rww4X6gYYj-9" style="edgeStyle=orthogonalEdgeStyle;rounded=0;orthogonalLoop=1;jettySize=auto;html=1;" edge="1" parent="1" source="e6L7W6aGP-rww4X6gYYj-2" target="e6L7W6aGP-rww4X6gYYj-5">
          <mxGeometry relative="1" as="geometry" />
        </mxCell>
        <mxCell id="e6L7W6aGP-rww4X6gYYj-2" value="Pessoa" style="whiteSpace=wrap;html=1;align=center;" vertex="1" parent="1">
          <mxGeometry x="130" y="260" width="100" height="40" as="geometry" />
        </mxCell>
        <mxCell id="e6L7W6aGP-rww4X6gYYj-3" value="Company&lt;div&gt;&lt;br&gt;&lt;/div&gt;" style="rounded=1;arcSize=10;whiteSpace=wrap;html=1;align=center;" vertex="1" parent="1">
          <mxGeometry x="670" y="260" width="100" height="40" as="geometry" />
        </mxCell>
        <mxCell id="e6L7W6aGP-rww4X6gYYj-7" style="edgeStyle=orthogonalEdgeStyle;rounded=0;orthogonalLoop=1;jettySize=auto;html=1;" edge="1" parent="1" source="e6L7W6aGP-rww4X6gYYj-4" target="e6L7W6aGP-rww4X6gYYj-5">
          <mxGeometry relative="1" as="geometry" />
        </mxCell>
        <mxCell id="e6L7W6aGP-rww4X6gYYj-4" value="Banco" style="rounded=1;arcSize=10;whiteSpace=wrap;html=1;align=center;" vertex="1" parent="1">
          <mxGeometry x="370" y="100" width="100" height="40" as="geometry" />
        </mxCell>
        <mxCell id="e6L7W6aGP-rww4X6gYYj-6" style="edgeStyle=orthogonalEdgeStyle;rounded=0;orthogonalLoop=1;jettySize=auto;html=1;" edge="1" parent="1" source="e6L7W6aGP-rww4X6gYYj-5" target="e6L7W6aGP-rww4X6gYYj-3">
          <mxGeometry relative="1" as="geometry" />
        </mxCell>
        <mxCell id="e6L7W6aGP-rww4X6gYYj-11" style="edgeStyle=orthogonalEdgeStyle;rounded=0;orthogonalLoop=1;jettySize=auto;html=1;" edge="1" parent="1" source="e6L7W6aGP-rww4X6gYYj-5" target="e6L7W6aGP-rww4X6gYYj-10">
          <mxGeometry relative="1" as="geometry" />
        </mxCell>
        <mxCell id="e6L7W6aGP-rww4X6gYYj-5" value="U" style="ellipse;whiteSpace=wrap;html=1;aspect=fixed;" vertex="1" parent="1">
          <mxGeometry x="380" y="240" width="80" height="80" as="geometry" />
        </mxCell>
        <mxCell id="e6L7W6aGP-rww4X6gYYj-10" value="Owner" style="whiteSpace=wrap;html=1;align=center;" vertex="1" parent="1">
          <mxGeometry x="370" y="480" width="100" height="40" as="geometry" />
        </mxCell>
        <mxCell id="e6L7W6aGP-rww4X6gYYj-14" style="edgeStyle=orthogonalEdgeStyle;rounded=0;orthogonalLoop=1;jettySize=auto;html=1;" edge="1" parent="1" source="e6L7W6aGP-rww4X6gYYj-13" target="e6L7W6aGP-rww4X6gYYj-2">
          <mxGeometry relative="1" as="geometry" />
        </mxCell>
        <mxCell id="e6L7W6aGP-rww4X6gYYj-13" value="Licença" style="ellipse;whiteSpace=wrap;html=1;align=center;" vertex="1" parent="1">
          <mxGeometry x="-50" y="140" width="100" height="40" as="geometry" />
        </mxCell>
        <mxCell id="e6L7W6aGP-rww4X6gYYj-16" style="edgeStyle=orthogonalEdgeStyle;rounded=0;orthogonalLoop=1;jettySize=auto;html=1;entryX=0;entryY=0.5;entryDx=0;entryDy=0;" edge="1" parent="1" source="e6L7W6aGP-rww4X6gYYj-15" target="e6L7W6aGP-rww4X6gYYj-2">
          <mxGeometry relative="1" as="geometry" />
        </mxCell>
        <mxCell id="e6L7W6aGP-rww4X6gYYj-15" value="Nome" style="ellipse;whiteSpace=wrap;html=1;align=center;" vertex="1" parent="1">
          <mxGeometry x="-50" y="260" width="100" height="40" as="geometry" />
        </mxCell>
        <mxCell id="e6L7W6aGP-rww4X6gYYj-19" style="edgeStyle=orthogonalEdgeStyle;rounded=0;orthogonalLoop=1;jettySize=auto;html=1;" edge="1" parent="1" source="e6L7W6aGP-rww4X6gYYj-17">
          <mxGeometry relative="1" as="geometry">
            <mxPoint x="140" y="250" as="targetPoint" />
          </mxGeometry>
        </mxCell>
        <mxCell id="e6L7W6aGP-rww4X6gYYj-17" value="Licença" style="ellipse;whiteSpace=wrap;html=1;align=center;" vertex="1" parent="1">
          <mxGeometry x="-50" y="200" width="100" height="40" as="geometry" />
        </mxCell>
        <mxCell id="e6L7W6aGP-rww4X6gYYj-18" value="Endereço" style="ellipse;whiteSpace=wrap;html=1;align=center;" vertex="1" parent="1">
          <mxGeometry x="-50" y="320" width="100" height="40" as="geometry" />
        </mxCell>
        <mxCell id="e6L7W6aGP-rww4X6gYYj-20" style="edgeStyle=orthogonalEdgeStyle;rounded=0;orthogonalLoop=1;jettySize=auto;html=1;entryX=0.09;entryY=1;entryDx=0;entryDy=0;entryPerimeter=0;" edge="1" parent="1" source="e6L7W6aGP-rww4X6gYYj-18" target="e6L7W6aGP-rww4X6gYYj-2">
          <mxGeometry relative="1" as="geometry" />
        </mxCell>
        <mxCell id="e6L7W6aGP-rww4X6gYYj-23" style="edgeStyle=orthogonalEdgeStyle;rounded=0;orthogonalLoop=1;jettySize=auto;html=1;" edge="1" parent="1" source="e6L7W6aGP-rww4X6gYYj-21" target="e6L7W6aGP-rww4X6gYYj-4">
          <mxGeometry relative="1" as="geometry" />
        </mxCell>
        <mxCell id="e6L7W6aGP-rww4X6gYYj-21" value="Bnome" style="ellipse;whiteSpace=wrap;html=1;align=center;" vertex="1" parent="1">
          <mxGeometry x="270" y="-10" width="100" height="40" as="geometry" />
        </mxCell>
        <mxCell id="e6L7W6aGP-rww4X6gYYj-24" style="edgeStyle=orthogonalEdgeStyle;rounded=0;orthogonalLoop=1;jettySize=auto;html=1;entryX=0.75;entryY=0;entryDx=0;entryDy=0;" edge="1" parent="1" source="e6L7W6aGP-rww4X6gYYj-22" target="e6L7W6aGP-rww4X6gYYj-4">
          <mxGeometry relative="1" as="geometry" />
        </mxCell>
        <mxCell id="e6L7W6aGP-rww4X6gYYj-22" value="Bendereço" style="ellipse;whiteSpace=wrap;html=1;align=center;" vertex="1" parent="1">
          <mxGeometry x="470" y="-10" width="100" height="40" as="geometry" />
        </mxCell>
        <mxCell id="e6L7W6aGP-rww4X6gYYj-27" style="edgeStyle=orthogonalEdgeStyle;rounded=0;orthogonalLoop=1;jettySize=auto;html=1;" edge="1" parent="1" source="e6L7W6aGP-rww4X6gYYj-25" target="e6L7W6aGP-rww4X6gYYj-3">
          <mxGeometry relative="1" as="geometry" />
        </mxCell>
        <mxCell id="e6L7W6aGP-rww4X6gYYj-25" value="Cendereço" style="ellipse;whiteSpace=wrap;html=1;align=center;" vertex="1" parent="1">
          <mxGeometry x="670" y="160" width="100" height="40" as="geometry" />
        </mxCell>
        <mxCell id="e6L7W6aGP-rww4X6gYYj-28" style="edgeStyle=orthogonalEdgeStyle;rounded=0;orthogonalLoop=1;jettySize=auto;html=1;" edge="1" parent="1" source="e6L7W6aGP-rww4X6gYYj-26" target="e6L7W6aGP-rww4X6gYYj-3">
          <mxGeometry relative="1" as="geometry" />
        </mxCell>
        <mxCell id="e6L7W6aGP-rww4X6gYYj-26" value="Cnome" style="ellipse;whiteSpace=wrap;html=1;align=center;" vertex="1" parent="1">
          <mxGeometry x="670" y="370" width="100" height="40" as="geometry" />
        </mxCell>
      </root>
    </mxGraphModel>
  </diagram>
</mxfile>
